ffmpeg started on 2022-05-10 at 02:36:43
Report written to "ffmpeg-20220510-023643.log"
ffmpeg version 4.2.6 Copyright (c) 2000-2022 the FFmpeg developers
  built with gcc 8 (GCC)
  configuration: --prefix=/usr --bindir=/usr/bin --datadir=/usr/share/ffmpeg --docdir=/usr/share/doc/ffmpeg --incdir=/usr/include/ffmpeg --libdir=/usr/lib64 --mandir=/usr/share/man --arch=x86_64 --optflags='-O2 -g -pipe -Wall -Werror=format-security -Wp,-D_FORTIFY_SOURCE=2 -Wp,-D_GLIBCXX_ASSERTIONS -fexceptions -fstack-protector-strong -grecord-gcc-switches -specs=/usr/lib/rpm/redhat/redhat-hardened-cc1 -specs=/usr/lib/rpm/redhat/redhat-annobin-cc1 -m64 -mtune=generic -fasynchronous-unwind-tables -fstack-clash-protection -fcf-protection' --extra-ldflags='-Wl,-z,relro -Wl,-z,now -specs=/usr/lib/rpm/redhat/redhat-hardened-ld ' --extra-cflags=' ' --enable-libopencore-amrnb --enable-libopencore-amrwb --enable-libvo-amrwbenc --enable-version3 --enable-bzlib --disable-crystalhd --enable-fontconfig --enable-frei0r --enable-gcrypt --enable-gnutls --enable-ladspa --enable-libaom --enable-libdav1d --enable-libass --enable-libbluray --enable-libcdio --enable-libdrm --enable-libjack --enable-libfreetype --enable-libfribidi --enable-libgsm --enable-libmp3lame --enable-nvenc --enable-openal --enable-opencl --enable-opengl --enable-libopenjpeg --enable-libopus --enable-libpulse --enable-librsvg --enable-libsrt --enable-libsoxr --enable-libspeex --enable-libssh --enable-libtheora --enable-libvorbis --enable-libv4l2 --enable-libvidstab --enable-libvmaf --enable-version3 --enable-vapoursynth --enable-libvpx --enable-libx264 --enable-libx265 --enable-libxvid --enable-libzimg --enable-libzvbi --enable-avfilter --enable-avresample --enable-libmodplug --enable-postproc --enable-pthreads --disable-static --enable-shared --enable-gpl --disable-debug --disable-stripping --shlibdir=/usr/lib64 --enable-libmfx --enable-runtime-cpudetect
  libavutil      56. 31.100 / 56. 31.100
  libavcodec     58. 54.100 / 58. 54.100
  libavformat    58. 29.100 / 58. 29.100
  libavdevice    58.  8.100 / 58.  8.100
  libavfilter     7. 57.100 /  7. 57.100
  libavresample   4.  0.  0 /  4.  0.  0
  libswscale      5.  5.100 /  5.  5.100
  libswresample   3.  5.100 /  3.  5.100
  libpostproc    55.  5.100 / 55.  5.100
Input #0, matroska,webm, from 'uhd1.webm':
  Metadata:
    encoder         : google/video-file
  Duration: 00:05:13.78, start: 0.000000, bitrate: 25462 kb/s
    Stream #0:0(eng): Video: vp9 (Profile 0), yuv420p(tv, bt709), 3840x2160, SAR 1:1 DAR 16:9, 59.94 fps, 59.94 tbr, 1k tbn, 1k tbc (default)
    Side data:
      Content Light Level Metadata, MaxCLL=1100, MaxFALL=180
Stream mapping:
  Stream #0:0 -> #0:0 (vp9 (native) -> h264 (libx264))
Press [q] to stop, [?] for help
[libx264 @ 0x5595595852c0] Application has requested 32 threads. Using a thread count greater than 16 is not recommended.
[libx264 @ 0x5595595852c0] using SAR=1/1
[libx264 @ 0x5595595852c0] using cpu capabilities: MMX2 SSE2Fast SSSE3 SSE4.2 AVX FMA3 BMI2 AVX2 AVX512
[libx264 @ 0x5595595852c0] profile Constrained Baseline, level 5.2, 4:2:0, 8-bit
[libx264 @ 0x5595595852c0] 264 - core 157 r2980 34c06d1 - H.264/MPEG-4 AVC codec - Copyleft 2003-2019 - http://www.videolan.org/x264.html - options: cabac=0 ref=1 deblock=0:0:0 analyse=0:0 me=dia subme=0 psy=0 mixed_ref=0 me_range=16 chroma_me=1 trellis=0 8x8dct=0 cqm=0 deadzone=21,11 fast_pskip=1 chroma_qp_offset=0 threads=32 lookahead_threads=5 sliced_threads=0 nr=0 decimate=1 interlaced=0 bluray_compat=0 constrained_intra=0 bframes=0 weightp=0 keyint=120 keyint_min=12 scenecut=0 intra_refresh=0 rc_lookahead=0 rc=abr mbtree=0 bitrate=100000 ratetol=1.0 qcomp=0.60 qpmin=0 qpmax=69 qpstep=4 vbv_maxrate=200000 vbv_bufsize=200000 nal_hrd=none filler=0 ip_ratio=1.40 aq=0
Output #0, mp4, to 'uhd1.mp4':
  Metadata:
    encoder         : Lavf58.29.100
    Stream #0:0(eng): Video: h264 (libx264) (avc1 / 0x31637661), yuv420p, 3840x2160 [SAR 1:1 DAR 16:9], q=-1--1, 100000 kb/s, 59.94 fps, 19001 tbn, 59.94 tbc (default)
    Metadata:
      encoder         : Lavc58.54.100 libx264
    Side data:
      cpb: bitrate max/min/avg: 200000000/0/100000000 buffer size: 200000000 vbv_delay: -1
      Content Light Level Metadata, MaxCLL=1100, MaxFALL=180
frame=   25 fps=0.0 q=0.0 size=       0kB time=00:00:00.00 bitrate=N/A speed=   0x    frame=   66 fps= 64 q=16.0 size=    6656kB time=00:00:00.53 bitrate=102124.7kbits/s speed=0.519x    frame=  109 fps= 70 q=16.0 size=   15360kB time=00:00:01.25 bitrate=100558.8kbits/s speed=0.802x    frame=  145 fps= 70 q=17.0 size=   22784kB time=00:00:01.85 bitrate=100786.5kbits/s speed=0.896x    frame=  181 fps= 70 q=18.0 size=   31488kB time=00:00:02.45 bitrate=105178.3kbits/s speed=0.953x    frame=  221 fps= 72 q=18.0 size=   40448kB time=00:00:03.11 bitrate=106207.6kbits/s speed=1.01x    frame=  257 fps= 71 q=19.0 size=   48128kB time=00:00:03.72 bitrate=105972.8kbits/s speed=1.03x    frame=  295 fps= 72 q=18.0 size=   56320kB time=00:00:04.35 bitrate=105955.7kbits/s speed=1.06x    frame=  333 fps= 72 q=18.0 size=   64000kB time=00:00:04.98 bitrate=105102.2kbits/s speed=1.08x    frame=  374 fps= 73 q=18.0 size=   71936kB time=00:00:05.67 bitrate=103889.3kbits/s speed=1.11x    frame=  417 fps= 74 q=17.0 size=   80384kB time=00:00:06.38 bitrate=103056.3kbits/s speed=1.14x    frame=  464 fps= 76 q=15.0 size=   87296kB time=00:00:07.17 bitrate=99685.1kbits/s speed=1.17x    frame=  501 fps= 76 q=14.0 size=   90880kB time=00:00:07.79 bitrate=95555.5kbits/s speed=1.18x    frame=  551 fps= 77 q=13.0 size=   96768kB time=00:00:08.62 bitrate=91906.4kbits/s speed=1.21x    frame=  600 fps= 79 q=11.0 size=  103936kB time=00:00:09.44 bitrate=90168.4kbits/s speed=1.24x    frame=  635 fps= 78 q=11.0 size=  110080kB time=00:00:10.02 bitrate=89937.1kbits/s speed=1.23x    frame=  679 fps= 79 q=12.0 size=  117504kB time=00:00:10.76 bitrate=89453.7kbits/s speed=1.25x    frame=  720 fps= 79 q=12.0 size=  125440kB time=00:00:11.44 bitrate=89787.8kbits/s speed=1.25x    frame=  759 fps= 78 q=17.0 size=  133120kB time=00:00:12.09 bitrate=90159.3kbits/s speed=1.25x    frame=  797 fps= 78 q=19.0 size=  145152kB time=00:00:12.72 bitrate=93412.3kbits/s speed=1.24x    frame=  837 fps= 78 q=17.0 size=  157952kB time=00:00:13.39 bitrate=96586.2kbits/s speed=1.24x    frame=  869 fps= 77 q=17.0 size=  166912kB time=00:00:13.93 bitrate=98153.7kbits/s speed=1.23x    frame=  904 fps= 77 q=18.0 size=  175872kB time=00:00:14.51 bitrate=99262.0kbits/s speed=1.23x    frame=  943 fps= 77 q=18.0 size=  185856kB time=00:00:15.16 bitrate=100396.5kbits/s speed=1.23x    frame=  978 fps= 76 q=18.0 size=  195072kB time=00:00:15.74 bitrate=101467.9kbits/s speed=1.23x    frame= 1011 fps= 76 q=18.0 size=  203776kB time=00:00:16.29 bitrate=102415.2kbits/s speed=1.22x    frame= 1049 fps= 76 q=18.0 size=  213760kB time=00:00:16.93 bitrate=103410.9kbits/s speed=1.22x    frame= 1093 fps= 76 q=18.0 size=  223488kB time=00:00:17.66 bitrate=103624.9kbits/s speed=1.23x    frame= 1125 fps= 76 q=18.0 size=  229632kB time=00:00:18.20 bitrate=103350.8kbits/s speed=1.23x    frame= 1162 fps= 76 q=20.0 size=  237312kB time=00:00:18.81 bitrate=103303.9kbits/s speed=1.22x    frame= 1200 fps= 76 q=20.0 size=  248320kB time=00:00:19.45 bitrate=104572.9kbits/s speed=1.23x    frame= 1235 fps= 75 q=21.0 size=  260608kB time=00:00:20.03 bitrate=106549.4kbits/s speed=1.22x    frame= 1272 fps= 75 q=21.0 size=  271360kB time=00:00:20.65 bitrate=107629.5kbits/s speed=1.22x    frame= 1313 fps= 75 q=21.0 size=  283136kB time=00:00:21.33 bitrate=108700.3kbits/s speed=1.23x    frame= 1339 fps= 75 q=22.0 size=  290304kB time=00:00:21.77 bitrate=109231.7kbits/s speed=1.22x    frame= 1374 fps= 75 q=22.0 size=  300032kB time=00:00:22.35 bitrate=109943.3kbits/s speed=1.21x    frame= 1415 fps= 75 q=22.0 size=  310784kB time=00:00:23.03 bitrate=110502.3kbits/s speed=1.22x    frame= 1446 fps= 74 q=23.0 size=  319488kB time=00:00:23.55 bitrate=111103.1kbits/s speed=1.21x    frame= 1479 fps= 74 q=23.0 size=  328704kB time=00:00:24.10 bitrate=111697.5kbits/s speed=1.21x    frame= 1521 fps= 74 q=23.0 size=  339200kB time=00:00:24.80 bitrate=112008.5kbits/s speed=1.21x    frame= 1561 fps= 74 q=23.0 size=  349440kB time=00:00:25.47 bitrate=112367.3kbits/s speed=1.21x    frame= 1583 fps= 74 q=23.0 size=  355072kB time=00:00:25.84 bitrate=112556.7kbits/s speed= 1.2x    frame= 1619 fps= 74 q=23.0 size=  363776kB time=00:00:26.44 bitrate=112696.7kbits/s speed= 1.2x    frame= 1658 fps= 74 q=19.0 size=  372224kB time=00:00:27.09 bitrate=112544.6kbits/s speed= 1.2x    frame= 1702 fps= 74 q=18.0 size=  377856kB time=00:00:27.82 bitrate=111233.8kbits/s speed=1.21x    frame= 1746 fps= 74 q=19.0 size=  381952kB time=00:00:28.56 bitrate=109549.8kbits/s speed=1.21x    frame= 1790 fps= 75 q=17.0 size=  385536kB time=00:00:29.29 bitrate=107807.0kbits/s speed=1.22x    frame= 1832 fps= 75 q=18.0 size=  388864kB time=00:00:29.99 bitrate=106197.5kbits/s speed=1.22x    frame= 1876 fps= 75 q=16.0 size=  393984kB time=00:00:30.73 bitrate=105025.7kbits/s speed=1.23x    frame= 1919 fps= 75 q=17.0 size=  397824kB time=00:00:31.44 bitrate=103630.1kbits/s speed=1.23x    frame= 1960 fps= 75 q=17.0 size=  403200kB time=00:00:32.13 bitrate=102794.7kbits/s speed=1.23x    frame= 2005 fps= 75 q=17.0 size=  408064kB time=00:00:32.88 bitrate=101659.5kbits/s speed=1.24x    frame= 2043 fps= 75 q=14.0 size=  412416kB time=00:00:33.51 bitrate=100800.4kbits/s speed=1.24x    frame= 2077 fps= 75 q=18.0 size=  418048kB time=00:00:34.08 bitrate=100476.5kbits/s speed=1.24x    frame= 2119 fps= 75 q=18.0 size=  425216kB time=00:00:34.78 bitrate=100140.6kbits/s speed=1.24x    frame= 2155 fps= 75 q=18.0 size=  431104kB time=00:00:35.38 bitrate=99804.0kbits/s speed=1.24x    frame= 2182 fps= 75 q=18.0 size=  435968kB time=00:00:35.83 bitrate=99661.4kbits/s speed=1.23x    frame= 2216 fps= 75 q=18.0 size=  442624kB time=00:00:36.40 bitrate=99606.3kbits/s speed=1.23x    frame= 2251 fps= 75 q=18.0 size=  448256kB time=00:00:36.98 bitrate=99281.2kbits/s speed=1.23x    frame= 2296 fps= 75 q=18.0 size=  456448kB time=00:00:37.73 bitrate=99084.4kbits/s speed=1.23x    frame= 2326 fps= 75 q=18.0 size=  463360kB time=00:00:38.23 bitrate=99268.3kbits/s speed=1.23x    frame= 2368 fps= 75 q=17.0 size=  470528kB time=00:00:38.93 bitrate=98990.0kbits/s speed=1.23x    frame= 2404 fps= 75 q=21.0 size=  476928kB time=00:00:39.53 bitrate=98812.3kbits/s speed=1.23x    frame= 2429 fps= 74 q=19.0 size=  482048kB time=00:00:39.95 bitrate=98830.6kbits/s speed=1.22x    frame= 2466 fps= 74 q=19.0 size=  491008kB time=00:00:40.57 bitrate=99136.1kbits/s speed=1.22x    frame= 2501 fps= 74 q=20.0 size=  500992kB time=00:00:41.15 bitrate=99716.8kbits/s speed=1.22x    frame= 2536 fps= 74 q=19.0 size=  509952kB time=00:00:41.74 bitrate=100080.3kbits/s speed=1.22x    frame= 2575 fps= 74 q=15.0 size=  519424kB time=00:00:42.39 bitrate=100374.6kbits/s speed=1.22x    frame= 2620 fps= 74 q=14.0 size=  521728kB time=00:00:43.14 bitrate=99065.5kbits/s speed=1.22x    frame= 2661 fps= 74 q=14.0 size=  523776kB time=00:00:43.82 bitrate=97902.1kbits/s speed=1.22x    frame= 2703 fps= 75 q=13.0 size=  526336kB time=00:00:44.52 bitrate=96832.5kbits/s speed=1.23x    frame= 2753 fps= 75 q=16.0 size=  529920kB time=00:00:45.36 bitrate=95699.1kbits/s speed=1.23x    frame= 2787 fps= 75 q=15.0 size=  536320kB time=00:00:45.92 bitrate=95658.7kbits/s speed=1.23x    frame= 2827 fps= 75 q=15.0 size=  545792kB time=00:00:46.59 bitrate=95954.0kbits/s speed=1.23x    frame= 2871 fps= 75 q=16.0 size=  555264kB time=00:00:47.33 bitrate=96105.2kbits/s speed=1.24x    frame= 2907 fps= 75 q=16.0 size=  563200kB time=00:00:47.93 bitrate=96257.3kbits/s speed=1.23x    frame= 2947 fps= 75 q=16.0 size=  572416kB time=00:00:48.59 bitrate=96489.0kbits/s speed=1.23x    frame= 2990 fps= 75 q=16.0 size=  581888kB time=00:00:49.31 bitrate=96658.9kbits/s speed=1.24x    frame= 3029 fps= 75 q=15.0 size=  590080kB time=00:00:49.96 bitrate=96743.3kbits/s speed=1.24x    frame= 3075 fps= 75 q=16.0 size=  600064kB time=00:00:50.73 bitrate=96892.0kbits/s speed=1.24x    frame= 3116 fps= 75 q=15.0 size=  608512kB time=00:00:51.41 bitrate=96949.0kbits/s speed=1.24x    frame= 3147 fps= 75 q=15.0 size=  614656kB time=00:00:51.93 bitrate=96952.7kbits/s speed=1.24x    frame= 3187 fps= 75 q=15.0 size=  622592kB time=00:00:52.60 bitrate=96958.6kbits/s speed=1.24x    frame= 3239 fps= 75 q=15.0 size=  632064kB time=00:00:53.47 bitrate=96836.7kbits/s speed=1.25x    frame= 3269 fps= 75 q=15.0 size=  637184kB time=00:00:53.97 bitrate=96715.8kbits/s speed=1.24x    frame= 3305 fps= 75 q=15.0 size=  644352kB time=00:00:54.57 bitrate=96727.4kbits/s speed=1.24x    frame= 3343 fps= 75 q=15.0 size=  651520kB time=00:00:55.20 bitrate=96680.2kbits/s speed=1.24x    frame= 3381 fps= 75 q=17.0 size=  658944kB time=00:00:55.83 bitrate=96671.7kbits/s speed=1.24x    frame= 3417 fps= 75 q=16.0 size=  665600kB time=00:00:56.43 bitrate=96609.1kbits/s speed=1.24x    frame= 3459 fps= 75 q=16.0 size=  673024kB time=00:00:57.14 bitrate=96488.8kbits/s speed=1.24x    frame= 3493 fps= 75 q=16.0 size=  678656kB time=00:00:57.70 bitrate=96339.8kbits/s speed=1.24x    frame= 3525 fps= 75 q=15.0 size=  684544kB time=00:00:58.24 bitrate=96284.9kbits/s speed=1.24x    frame= 3567 fps= 75 q=16.0 size=  692224kB time=00:00:58.94 bitrate=96207.7kbits/s speed=1.24x    frame= 3602 fps= 75 q=16.0 size=  699136kB time=00:00:59.52 bitrate=96215.2kbits/s speed=1.24x    frame= 3626 fps= 75 q=16.0 size=  703488kB time=00:00:59.92 bitrate=96167.2kbits/s speed=1.24x    frame= 3664 fps= 75 q=15.0 size=  710656kB time=00:01:00.56 bitrate=96130.1kbits/s speed=1.24x    frame= 3702 fps= 75 q=15.0 size=  717312kB time=00:01:01.19 bitrate=96025.3kbits/s speed=1.24x    frame= 3737 fps= 75 q=14.0 size=  723456kB time=00:01:01.77 bitrate=95932.4kbits/s speed=1.24x    frame= 3774 fps= 75 q=14.0 size=  729344kB time=00:01:02.39 bitrate=95756.4kbits/s speed=1.24x    frame= 3815 fps= 75 q=13.0 size=  734976kB time=00:01:03.07 bitrate=95449.4kbits/s speed=1.24x    frame= 3856 fps= 75 q=13.0 size=  741120kB time=00:01:03.76 bitrate=95214.8kbits/s speed=1.24x    frame= 3901 fps= 75 q=13.0 size=  748288kB time=00:01:04.51 bitrate=95017.0kbits/s speed=1.24x    frame= 3944 fps= 75 q=13.0 size=  754944kB time=00:01:05.23 bitrate=94808.0kbits/s speed=1.24x    frame= 3975 fps= 75 q=13.0 size=  760064kB time=00:01:05.74 bitrate=94700.1kbits/s speed=1.24x    frame= 4011 fps= 75 q=13.0 size=  766720kB time=00:01:06.34 bitrate=94664.7kbits/s speed=1.24x    frame= 4046 fps= 75 q=15.0 size=  772608kB time=00:01:06.93 bitrate=94559.5kbits/s speed=1.24x    frame= 4089 fps= 75 q=15.0 size=  783872kB time=00:01:07.65 bitrate=94920.7kbits/s speed=1.24x    frame= 4118 fps= 75 q=15.0 size=  792576kB time=00:01:08.13 bitrate=95293.2kbits/s speed=1.24x    frame= 4154 fps= 75 q=15.0 size=  801536kB time=00:01:08.73 bitrate=95528.4kbits/s speed=1.24x    frame= 4188 fps= 75 q=15.0 size=  810496kB time=00:01:09.30 bitrate=95805.7kbits/s speed=1.23x    frame= 4219 fps= 74 q=15.0 size=  818432kB time=00:01:09.81 bitrate=96027.1kbits/s speed=1.23x    frame= 4257 fps= 74 q=15.0 size=  828672kB time=00:01:10.45 bitrate=96353.7kbits/s speed=1.23x    frame= 4294 fps= 74 q=15.0 size=  837888kB time=00:01:11.07 bitrate=96579.1kbits/s speed=1.23x    frame= 4323 fps= 74 q=12.0 size=  845056kB time=00:01:11.55 bitrate=96746.7kbits/s speed=1.23x    frame= 4361 fps= 74 q=16.0 size=  854528kB time=00:01:12.18 bitrate=96972.0kbits/s speed=1.23x    frame= 4407 fps= 74 q=16.0 size=  864512kB time=00:01:12.95 bitrate=97073.0kbits/s speed=1.23x    frame= 4443 fps= 74 q=13.0 size=  872960kB time=00:01:13.55 bitrate=97221.2kbits/s speed=1.23x    frame= 4469 fps= 74 q=16.0 size=  878848kB time=00:01:13.99 bitrate=97303.2kbits/s speed=1.23x    frame= 4503 fps= 74 q=17.0 size=  888064kB time=00:01:14.55 bitrate=97575.5kbits/s speed=1.23x    frame= 4541 fps= 74 q=16.0 size=  897792kB time=00:01:15.19 bitrate=97812.7kbits/s speed=1.23x    frame= 4575 fps= 74 q=16.0 size=  906752kB time=00:01:15.75 bitrate=98049.2kbits/s speed=1.23x    frame= 4608 fps= 74 q=15.0 size=  915968kB time=00:01:16.30 bitrate=98331.1kbits/s speed=1.23x    frame= 4650 fps= 74 q=13.0 size=  924416kB time=00:01:17.01 bitrate=98335.1kbits/s speed=1.23x    frame= 4694 fps= 74 q=13.0 size=  929280kB time=00:01:17.74 bitrate=97919.1kbits/s speed=1.23x    frame= 4734 fps= 74 q=14.0 size=  934400kB time=00:01:18.41 bitrate=97620.7kbits/s speed=1.23x    frame= 4790 fps= 74 q=13.0 size=  941056kB time=00:01:19.34 bitrate=97158.4kbits/s speed=1.23x    frame= 4825 fps= 74 q=12.0 size=  945920kB time=00:01:19.92 bitrate=96947.2kbits/s speed=1.23x    frame= 4866 fps= 74 q=12.0 size=  951808kB time=00:01:20.61 bitrate=96722.9kbits/s speed=1.23x    frame= 4911 fps= 75 q=11.0 size=  958208kB time=00:01:21.36 bitrate=96474.8kbits/s speed=1.24x    frame= 4950 fps= 75 q=11.0 size=  965376kB time=00:01:22.01 bitrate=96425.4kbits/s speed=1.24x    frame= 4988 fps= 75 q=11.0 size=  973056kB time=00:01:22.64 bitrate=96447.0kbits/s speed=1.24x    frame= 5029 fps= 75 q=11.0 size=  979968kB time=00:01:23.33 bitrate=96334.8kbits/s speed=1.24x    frame= 5068 fps= 75 q=12.0 size=  987136kB time=00:01:23.98 bitrate=96287.7kbits/s speed=1.24x    frame= 5113 fps= 75 q=14.0 size=  996096kB time=00:01:24.73 bitrate=96300.8kbits/s speed=1.24x    frame= 5153 fps= 75 q=14.0 size= 1002752kB time=00:01:25.40 bitrate=96186.8kbits/s speed=1.24x    frame= 5182 fps= 75 q=14.0 size= 1007360kB time=00:01:25.88 bitrate=96084.4kbits/s speed=1.24x    frame= 5215 fps= 75 q=14.0 size= 1013248kB time=00:01:26.43 bitrate=96030.5kbits/s speed=1.24x    frame= 5248 fps= 75 q=14.0 size= 1020160kB time=00:01:26.98 bitrate=96073.6kbits/s speed=1.24x    frame= 5287 fps= 75 q=15.0 size= 1029376kB time=00:01:27.63 bitrate=96221.8kbits/s speed=1.24x    frame= 5317 fps= 74 q=15.0 size= 1037568kB time=00:01:28.13 bitrate=96436.8kbits/s speed=1.23x    frame= 5353 fps= 74 q=15.0 size= 1046784kB time=00:01:28.73 bitrate=96634.9kbits/s speed=1.23x    frame= 5387 fps= 74 q=15.0 size= 1054464kB time=00:01:29.30 bitrate=96725.6kbits/s speed=1.23x    frame= 5423 fps= 74 q=15.0 size= 1061888kB time=00:01:29.90 bitrate=96755.9kbits/s speed=1.23x    frame= 5461 fps= 74 q=15.0 size= 1070336kB time=00:01:30.54 bitrate=96842.8kbits/s speed=1.23x    frame= 5499 fps= 74 q=14.0 size= 1078272kB time=00:01:31.17 bitrate=96882.4kbits/s speed=1.23x    frame= 5532 fps= 74 q=17.0 size= 1086720kB time=00:01:31.72 bitrate=97055.4kbits/s speed=1.23x    frame= 5563 fps= 74 q=17.0 size= 1100288kB time=00:01:32.24 bitrate=97716.2kbits/s speed=1.23x    frame= 5606 fps= 74 q=18.0 size= 1118208kB time=00:01:32.95 bitrate=98541.3kbits/s speed=1.23x    frame= 5640 fps= 74 q=19.0 size= 1131264kB time=00:01:33.52 bitrate=99087.3kbits/s speed=1.23x    frame= 5664 fps= 74 q=19.0 size= 1139712kB time=00:01:33.92 bitrate=99401.7kbits/s speed=1.23x    frame= 5697 fps= 74 q=19.0 size= 1152768kB time=00:01:34.47 bitrate=99954.5kbits/s speed=1.23x    frame= 5731 fps= 74 q=19.0 size= 1164800kB time=00:01:35.04 bitrate=100395.0kbits/s speed=1.23x    frame= 5766 fps= 74 q=20.0 size= 1175808kB time=00:01:35.62 bitrate=100725.0kbits/s speed=1.23x    frame= 5797 fps= 74 q=20.0 size= 1186560kB time=00:01:36.14 bitrate=101099.3kbits/s speed=1.22x    frame= 5829 fps= 74 q=19.0 size= 1196544kB time=00:01:36.67 bitrate=101387.0kbits/s speed=1.22x    frame= 5861 fps= 74 q=19.0 size= 1206016kB time=00:01:37.21 bitrate=101628.4kbits/s speed=1.22x    frame= 5896 fps= 74 q=18.0 size= 1215232kB time=00:01:37.79 bitrate=101793.6kbits/s speed=1.22x    frame= 5932 fps= 74 q=16.0 size= 1224448kB time=00:01:38.39 bitrate=101939.5kbits/s speed=1.22x    frame= 5973 fps= 74 q=15.0 size= 1232896kB time=00:01:39.08 bitrate=101934.2kbits/s speed=1.22x    frame= 6010 fps= 74 q=16.0 size= 1238528kB time=00:01:39.69 bitrate=101765.9kbits/s speed=1.22x    frame= 6046 fps= 74 q=16.0 size= 1244160kB time=00:01:40.30 bitrate=101616.5kbits/s speed=1.22x    frame= 6085 fps= 74 q=16.0 size= 1250048kB time=00:01:40.95 bitrate=101439.4kbits/s speed=1.22x    frame= 6120 fps= 74 q=16.0 size= 1256192kB time=00:01:41.53 bitrate=101351.7kbits/s speed=1.22x    frame= 6159 fps= 74 q=16.0 size= 1263104kB time=00:01:42.18 bitrate=101260.5kbits/s speed=1.22x    frame= 6197 fps= 74 q=16.0 size= 1268992kB time=00:01:42.81 bitrate=101105.2kbits/s speed=1.22x    frame= 6242 fps= 74 q=16.0 size= 1275904kB time=00:01:43.57 bitrate=100919.1kbits/s speed=1.22x    frame= 6272 fps= 74 q=16.0 size= 1281024kB time=00:01:44.07 bitrate=100836.7kbits/s speed=1.22x    frame= 6317 fps= 74 q=16.0 size= 1289216kB time=00:01:44.82 bitrate=100754.8kbits/s speed=1.22x    frame= 6350 fps= 74 q=16.0 size= 1294848kB time=00:01:45.37 bitrate=100666.2kbits/s speed=1.22x    frame= 6383 fps= 74 q=16.0 size= 1300736kB time=00:01:45.92 bitrate=100598.3kbits/s speed=1.22x    frame= 6417 fps= 74 q=16.0 size= 1307136kB time=00:01:46.48 bitrate=100554.8kbits/s speed=1.22x    frame= 6461 fps= 74 q=19.0 size= 1315072kB time=00:01:47.22 bitrate=100472.7kbits/s speed=1.22x    frame= 6492 fps= 74 q=19.0 size= 1323776kB time=00:01:47.74 bitrate=100652.2kbits/s speed=1.22x    frame= 6525 fps= 74 q=19.0 size= 1334784kB time=00:01:48.29 bitrate=100973.2kbits/s speed=1.22x    frame= 6569 fps= 74 q=20.0 size= 1348608kB time=00:01:49.02 bitrate=101332.1kbits/s speed=1.22x    frame= 6604 fps= 74 q=24.0 size= 1360896kB time=00:01:49.60 bitrate=101710.7kbits/s speed=1.22x    frame= 6626 fps= 73 q=21.0 size= 1369088kB time=00:01:49.97 bitrate=101981.4kbits/s speed=1.22x    frame= 6656 fps= 73 q=21.0 size= 1380096kB time=00:01:50.47 bitrate=102335.7kbits/s speed=1.22x    frame= 6696 fps= 73 q=21.0 size= 1395456kB time=00:01:51.14 bitrate=102853.4kbits/s speed=1.22x    frame= 6729 fps= 73 q=18.0 size= 1407744kB time=00:01:51.69 bitrate=103247.6kbits/s speed=1.22x    frame= 6762 fps= 73 q=15.0 size= 1420544kB time=00:01:52.24 bitrate=103675.4kbits/s speed=1.22x    frame= 6805 fps= 73 q=18.0 size= 1428992kB time=00:01:52.96 bitrate=103629.6kbits/s speed=1.22x    frame= 6848 fps= 73 q=18.0 size= 1436416kB time=00:01:53.68 bitrate=103510.7kbits/s speed=1.22x    frame= 6893 fps= 73 q=18.0 size= 1444864kB time=00:01:54.43 bitrate=103436.3kbits/s speed=1.22x    frame= 6939 fps= 74 q=16.0 size= 1452544kB time=00:01:55.19 bitrate=103293.4kbits/s speed=1.22x    frame= 6976 fps= 74 q=16.0 size= 1458176kB time=00:01:55.81 bitrate=103141.2kbits/s speed=1.22x    frame= 7015 fps= 74 q=18.0 size= 1464832kB time=00:01:56.46 bitrate=103033.2kbits/s speed=1.22x    frame= 7056 fps= 74 q=17.0 size= 1471232kB time=00:01:57.15 bitrate=102879.1kbits/s speed=1.22x    frame= 7095 fps= 74 q=18.0 size= 1478656kB time=00:01:57.80 bitrate=102827.2kbits/s speed=1.22x    frame= 7138 fps= 74 q=17.0 size= 1486336kB time=00:01:58.51 bitrate=102735.6kbits/s speed=1.22x    frame= 7179 fps= 74 q=15.0 size= 1491968kB time=00:01:59.20 bitrate=102533.1kbits/s speed=1.22x    frame= 7223 fps= 74 q=16.0 size= 1497344kB time=00:01:59.93 bitrate=102272.8kbits/s speed=1.22x    frame= 7268 fps= 74 q=16.0 size= 1503232kB time=00:02:00.68 bitrate=102036.2kbits/s speed=1.23x    frame= 7323 fps= 74 q=12.0 size= 1510144kB time=00:02:01.60 bitrate=101732.0kbits/s speed=1.23x    frame= 7357 fps= 74 q=12.0 size= 1514496kB time=00:02:02.17 bitrate=101551.4kbits/s speed=1.23x    frame= 7403 fps= 74 q=15.0 size= 1519616kB time=00:02:02.93 bitrate=101258.7kbits/s speed=1.23x    frame= 7451 fps= 74 q=13.0 size= 1524736kB time=00:02:03.74 bitrate=100942.3kbits/s speed=1.23x    frame= 7493 fps= 74 q=14.0 size= 1529344kB time=00:02:04.44 bitrate=100677.3kbits/s speed=1.23x    frame= 7538 fps= 74 q=13.0 size= 1533952kB time=00:02:05.19 bitrate=100375.1kbits/s speed=1.23x    frame= 7581 fps= 74 q=12.0 size= 1538816kB time=00:02:05.90 bitrate=100119.6kbits/s speed=1.24x    frame= 7631 fps= 74 q=11.0 size= 1543936kB time=00:02:06.74 bitrate=99791.6kbits/s speed=1.24x    frame= 7678 fps= 75 q=11.0 size= 1548800kB time=00:02:07.52 bitrate=99490.5kbits/s speed=1.24x    frame= 7718 fps= 75 q=15.0 size= 1554432kB time=00:02:08.19 bitrate=99332.5kbits/s speed=1.24x    frame= 7762 fps= 75 q=16.0 size= 1561088kB time=00:02:08.92 bitrate=99189.9kbits/s speed=1.24x    frame= 7798 fps= 75 q=19.0 size= 1566976kB time=00:02:09.52 bitrate=99102.3kbits/s speed=1.24x    frame= 7824 fps= 75 q=18.0 size= 1572864kB time=00:02:09.96 bitrate=99142.7kbits/s speed=1.24x    frame= 7860 fps= 74 q=17.0 size= 1582848kB time=00:02:10.56 bitrate=99313.1kbits/s speed=1.24x    frame= 7902 fps= 75 q=17.0 size= 1591552kB time=00:02:11.26 bitrate=99326.1kbits/s speed=1.24x    frame= 7939 fps= 75 q=17.0 size= 1598976kB time=00:02:11.88 bitrate=99322.4kbits/s speed=1.24x    frame= 7984 fps= 75 q=16.0 size= 1608192kB time=00:02:12.63 bitrate=99329.4kbits/s speed=1.24x    frame= 8022 fps= 75 q=16.0 size= 1615104kB time=00:02:13.26 bitrate=99281.7kbits/s speed=1.24x    frame= 8054 fps= 75 q=17.0 size= 1622528kB time=00:02:13.80 bitrate=99340.2kbits/s speed=1.24x    frame= 8090 fps= 74 q=18.0 size= 1631488kB time=00:02:14.40 bitrate=99442.4kbits/s speed=1.24x    frame= 8128 fps= 74 q=19.0 size= 1641472kB time=00:02:15.03 bitrate=99581.2kbits/s speed=1.24x    frame= 8159 fps= 74 q=19.0 size= 1650432kB time=00:02:15.55 bitrate=99742.7kbits/s speed=1.24x    frame= 8197 fps= 74 q=19.0 size= 1663232kB time=00:02:16.18 bitrate=100048.4kbits/s speed=1.24x    frame= 8239 fps= 74 q=21.0 size= 1677056kB time=00:02:16.88 bitrate=100363.5kbits/s speed=1.24x    frame= 8271 fps= 74 q=21.0 size= 1691392kB time=00:02:17.42 bitrate=100828.2kbits/s speed=1.24x    frame= 8299 fps= 74 q=22.0 size= 1705216kB time=00:02:17.88 bitrate=101308.0kbits/s speed=1.23x    frame= 8328 fps= 74 q=22.0 size= 1720064kB time=00:02:18.37 bitrate=101832.8kbits/s speed=1.23x    frame= 8359 fps= 74 q=23.0 size= 1734912kB time=00:02:18.88 bitrate=102329.3kbits/s speed=1.23x    frame= 8397 fps= 74 q=23.0 size= 1752320kB time=00:02:19.52 bitrate=102886.5kbits/s speed=1.23x    frame= 8426 fps= 74 q=25.0 size= 1764864kB time=00:02:20.00 bitrate=103264.9kbits/s speed=1.23x    frame= 8459 fps= 74 q=24.0 size= 1779200kB time=00:02:20.55 bitrate=103696.0kbits/s speed=1.23x    frame= 8497 fps= 74 q=22.0 size= 1794048kB time=00:02:21.19 bitrate=104091.8kbits/s speed=1.23x    frame= 8533 fps= 74 q=17.0 size= 1807104kB time=00:02:21.79 bitrate=104405.2kbits/s speed=1.23x    frame= 8574 fps= 74 q=16.0 size= 1811200kB time=00:02:22.47 bitrate=104139.5kbits/s speed=1.23x    frame= 8625 fps= 74 q=17.0 size= 1816320kB time=00:02:23.32 bitrate=103813.9kbits/s speed=1.23x    frame= 8661 fps= 74 q=17.0 size= 1819904kB time=00:02:23.92 bitrate=103584.7kbits/s speed=1.23x    frame= 8706 fps= 74 q=16.0 size= 1824512kB time=00:02:24.67 bitrate=103308.1kbits/s speed=1.23x    frame= 8747 fps= 74 q=16.0 size= 1828608kB time=00:02:25.36 bitrate=103052.8kbits/s speed=1.23x    frame= 8789 fps= 74 q=22.0 size= 1833472kB time=00:02:26.06 bitrate=102831.3kbits/s speed=1.23x    frame= 8826 fps= 74 q=18.0 size= 1838848kB time=00:02:26.67 bitrate=102698.7kbits/s speed=1.23x    frame= 8865 fps= 74 q=19.0 size= 1844736kB time=00:02:27.33 bitrate=102572.6kbits/s speed=1.23x    frame= 8895 fps= 74 q=19.0 size= 1849344kB time=00:02:27.83 bitrate=102480.7kbits/s speed=1.23x    frame= 8938 fps= 74 q=19.0 size= 1856512kB time=00:02:28.54 bitrate=102381.1kbits/s speed=1.23x    frame= 8976 fps= 74 q=19.0 size= 1862400kB time=00:02:29.18 bitrate=102269.3kbits/s speed=1.23x    frame= 9007 fps= 74 q=19.0 size= 1867264kB time=00:02:29.69 bitrate=102182.2kbits/s speed=1.23x    frame= 9037 fps= 74 q=18.0 size= 1872384kB time=00:02:30.20 bitrate=102120.9kbits/s speed=1.23x    frame= 9079 fps= 74 q=17.0 size= 1878784kB time=00:02:30.90 bitrate=101994.2kbits/s speed=1.23x    frame= 9119 fps= 74 q=16.0 size= 1882880kB time=00:02:31.56 bitrate=101766.5kbits/s speed=1.23x    frame= 9149 fps= 74 q=18.0 size= 1885952kB time=00:02:32.06 bitrate=101597.0kbits/s speed=1.23x    frame= 9195 fps= 74 q=17.0 size= 1891584kB time=00:02:32.83 bitrate=101388.7kbits/s speed=1.23x    frame= 9230 fps= 74 q=17.0 size= 1895424kB time=00:02:33.41 bitrate=101207.9kbits/s speed=1.23x    frame= 9260 fps= 74 q=18.0 size= 1898752kB time=00:02:33.92 bitrate=101055.9kbits/s speed=1.23x    frame= 9295 fps= 74 q=18.0 size= 1904640kB time=00:02:34.50 bitrate=100986.2kbits/s speed=1.23x    frame= 9339 fps= 74 q=16.0 size= 1912320kB time=00:02:35.23 bitrate=100913.9kbits/s speed=1.23x    frame= 9374 fps= 74 q=17.0 size= 1917696kB time=00:02:35.82 bitrate=100818.4kbits/s speed=1.23x    frame= 9411 fps= 74 q=18.0 size= 1924608kB time=00:02:36.43 bitrate=100782.6kbits/s speed=1.23x    frame= 9453 fps= 74 q=17.0 size= 1932032kB time=00:02:37.14 bitrate=100720.2kbits/s speed=1.23x    frame= 9491 fps= 74 q=17.0 size= 1938688kB time=00:02:37.77 bitrate=100661.1kbits/s speed=1.23x    frame= 9523 fps= 74 q=19.0 size= 1945088kB time=00:02:38.30 bitrate=100652.8kbits/s speed=1.23x    frame= 9567 fps= 74 q=17.0 size= 1953536kB time=00:02:39.04 bitrate=100623.4kbits/s speed=1.23x    frame= 9606 fps= 74 q=18.0 size= 1960192kB time=00:02:39.69 bitrate=100554.8kbits/s speed=1.23x    frame= 9641 fps= 74 q=17.0 size= 1966336kB time=00:02:40.27 bitrate=100502.5kbits/s speed=1.23x    frame= 9682 fps= 74 q=16.0 size= 1972480kB time=00:02:40.96 bitrate=100388.1kbits/s speed=1.23x    frame= 9726 fps= 74 q=18.0 size= 1979392kB time=00:02:41.69 bitrate=100282.6kbits/s speed=1.23x    frame= 9758 fps= 74 q=20.0 size= 1985024kB time=00:02:42.22 bitrate=100236.9kbits/s speed=1.23x    frame= 9790 fps= 74 q=20.0 size= 1993472kB time=00:02:42.76 bitrate=100333.4kbits/s speed=1.23x    frame= 9823 fps= 74 q=20.0 size= 2003200kB time=00:02:43.31 bitrate=100483.1kbits/s speed=1.23x    frame= 9857 fps= 74 q=20.0 size= 2012928kB time=00:02:43.88 bitrate=100621.6kbits/s speed=1.23x    frame= 9893 fps= 74 q=20.0 size= 2023680kB time=00:02:44.48 bitrate=100789.7kbits/s speed=1.23x    frame= 9931 fps= 74 q=20.0 size= 2033920kB time=00:02:45.11 bitrate=100910.7kbits/s speed=1.23x    frame= 9969 fps= 74 q=20.0 size= 2044928kB time=00:02:45.74 bitrate=101068.8kbits/s speed=1.23x    frame= 9994 fps= 74 q=20.0 size= 2053632kB time=00:02:46.16 bitrate=101244.2kbits/s speed=1.23x    frame=10033 fps= 74 q=21.0 size= 2064896kB time=00:02:46.81 bitrate=101402.5kbits/s speed=1.23x    frame=10069 fps= 74 q=17.0 size= 2075648kB time=00:02:47.41 bitrate=101564.8kbits/s speed=1.23x    frame=10106 fps= 74 q=16.0 size= 2080000kB time=00:02:48.03 bitrate=101403.9kbits/s speed=1.23x    frame=10149 fps= 74 q=16.0 size= 2085376kB time=00:02:48.75 bitrate=101233.8kbits/s speed=1.23x    frame=10193 fps= 74 q=17.0 size= 2090752kB time=00:02:49.48 bitrate=101055.2kbits/s speed=1.23x    frame=10236 fps= 74 q=16.0 size= 2096640kB time=00:02:50.20 bitrate=100912.6kbits/s speed=1.23x    frame=10281 fps= 74 q=16.0 size= 2102272kB time=00:02:50.95 bitrate=100739.4kbits/s speed=1.23x    frame=10322 fps= 74 q=16.0 size= 2107392kB time=00:02:51.63 bitrate=100582.3kbits/s speed=1.23x    frame=10361 fps= 74 q=15.0 size= 2113280kB time=00:02:52.28 bitrate=100482.4kbits/s speed=1.23x    frame=10408 fps= 74 q=16.0 size= 2118912kB time=00:02:53.07 bitrate=100293.7kbits/s speed=1.23x    frame=10447 fps= 74 q=16.0 size= 2124032kB time=00:02:53.72 bitrate=100159.5kbits/s speed=1.23x    frame=10474 fps= 74 q=16.0 size= 2128384kB time=00:02:54.17 bitrate=100105.2kbits/s speed=1.23x    frame=10512 fps= 74 q=15.0 size= 2132992kB time=00:02:54.80 bitrate=99958.1kbits/s speed=1.23x    frame=10550 fps= 74 q=15.0 size= 2136832kB time=00:02:55.44 bitrate=99776.2kbits/s speed=1.23x    frame=10593 fps= 74 q=15.0 size= 2141440kB time=00:02:56.15 bitrate=99584.1kbits/s speed=1.23x    frame=10633 fps= 74 q=15.0 size= 2145792kB time=00:02:56.82 bitrate=99409.9kbits/s speed=1.23x    frame=10671 fps= 74 q=15.0 size= 2150144kB time=00:02:57.46 bitrate=99255.7kbits/s speed=1.23x    frame=10708 fps= 74 q=15.0 size= 2155264kB time=00:02:58.07 bitrate=99147.2kbits/s speed=1.23x    frame=10748 fps= 74 q=13.0 size= 2161152kB time=00:02:58.74 bitrate=99046.9kbits/s speed=1.23x    frame=10788 fps= 74 q=14.0 size= 2166784kB time=00:02:59.41 bitrate=98935.6kbits/s speed=1.23x    frame=10820 fps= 74 q=14.0 size= 2170624kB time=00:02:59.94 bitrate=98816.9kbits/s speed=1.23x    frame=10859 fps= 74 q=13.0 size= 2174976kB time=00:03:00.59 bitrate=98658.3kbits/s speed=1.23x    frame=10901 fps= 74 q=14.0 size= 2180096kB time=00:03:01.29 bitrate=98508.3kbits/s speed=1.23x    frame=10943 fps= 74 q=12.0 size= 2185472kB time=00:03:01.99 bitrate=98371.1kbits/s speed=1.23x    frame=10990 fps= 74 q=12.0 size= 2191104kB time=00:03:02.78 bitrate=98201.5kbits/s speed=1.23x    frame=11029 fps= 74 q=20.0 size= 2195712kB time=00:03:03.43 bitrate=98058.9kbits/s speed=1.24x    frame=11061 fps= 74 q=21.0 size= 2205184kB time=00:03:03.96 bitrate=98196.2kbits/s speed=1.23x    frame=11091 fps= 74 q=23.0 size= 2221568kB time=00:03:04.46 bitrate=98657.3kbits/s speed=1.23x    frame=11128 fps= 74 q=25.0 size= 2244096kB time=00:03:05.08 bitrate=99325.4kbits/s speed=1.23x    frame=11160 fps= 74 q=25.0 size= 2258688kB time=00:03:05.61 bitrate=99683.7kbits/s speed=1.23x    frame=11183 fps= 74 q=24.0 size= 2267904kB time=00:03:06.00 bitrate=99884.0kbits/s speed=1.23x    frame=11217 fps= 74 q=24.0 size= 2280704kB time=00:03:06.56 bitrate=100142.3kbits/s speed=1.23x    frame=11258 fps= 74 q=24.0 size= 2297344kB time=00:03:07.25 bitrate=100504.5kbits/s speed=1.23x    frame=11289 fps= 74 q=26.0 size= 2309632kB time=00:03:07.77 bitrate=100763.7kbits/s speed=1.23x    frame=11314 fps= 74 q=24.0 size= 2320384kB time=00:03:08.18 bitrate=101008.5kbits/s speed=1.23x    frame=11352 fps= 74 q=20.0 size= 2333696kB time=00:03:08.82 bitrate=101246.9kbits/s speed=1.23x    frame=11385 fps= 74 q=21.0 size= 2345728kB time=00:03:09.37 bitrate=101473.0kbits/s speed=1.23x    frame=11422 fps= 74 q=21.0 size= 2359296kB time=00:03:09.98 bitrate=101728.3kbits/s speed=1.23x    frame=11459 fps= 74 q=21.0 size= 2373888kB time=00:03:10.60 bitrate=102026.0kbits/s speed=1.23x    frame=11492 fps= 74 q=21.0 size= 2385152kB time=00:03:11.15 bitrate=102214.9kbits/s speed=1.23x    frame=11527 fps= 74 q=22.0 size= 2396928kB time=00:03:11.74 bitrate=102406.8kbits/s speed=1.23x    frame=11562 fps= 74 q=21.0 size= 2409984kB time=00:03:12.32 bitrate=102652.0kbits/s speed=1.23x    frame=11599 fps= 74 q=22.0 size= 2422784kB time=00:03:12.94 bitrate=102867.0kbits/s speed=1.23x    frame=11635 fps= 74 q=21.0 size= 2435328kB time=00:03:13.54 bitrate=103078.7kbits/s speed=1.23x    frame=11661 fps= 74 q=22.0 size= 2444032kB time=00:03:13.97 bitrate=103215.8kbits/s speed=1.23x    frame=11700 fps= 74 q=20.0 size= 2457600kB time=00:03:14.62 bitrate=103441.8kbits/s speed=1.23x    frame=11739 fps= 74 q=21.0 size= 2468608kB time=00:03:15.27 bitrate=103559.0kbits/s speed=1.23x    frame=11772 fps= 74 q=22.0 size= 2478080kB time=00:03:15.82 bitrate=103664.1kbits/s speed=1.23x    frame=11799 fps= 74 q=22.0 size= 2486528kB time=00:03:16.27 bitrate=103778.8kbits/s speed=1.22x    frame=11833 fps= 74 q=22.0 size= 2496000kB time=00:03:16.84 bitrate=103873.9kbits/s speed=1.22x    frame=11868 fps= 74 q=22.0 size= 2506240kB time=00:03:17.43 bitrate=103991.6kbits/s speed=1.22x    frame=11913 fps= 74 q=22.0 size= 2518784kB time=00:03:18.18 bitrate=104116.1kbits/s speed=1.22x    frame=11951 fps= 74 q=22.0 size= 2529280kB time=00:03:18.81 bitrate=104216.6kbits/s speed=1.22x    frame=11989 fps= 74 q=21.0 size= 2539520kB time=00:03:19.44 bitrate=104306.0kbits/s speed=1.22x    frame=12014 fps= 74 q=22.0 size= 2545920kB time=00:03:19.86 bitrate=104350.6kbits/s speed=1.22x    frame=12050 fps= 74 q=22.0 size= 2555904kB time=00:03:20.46 bitrate=104446.0kbits/s speed=1.22x    frame=12095 fps= 74 q=22.0 size= 2567168kB time=00:03:21.21 bitrate=104514.9kbits/s speed=1.22x    frame=12127 fps= 74 q=22.0 size= 2575616kB time=00:03:21.75 bitrate=104581.3kbits/s speed=1.22x    frame=12154 fps= 73 q=19.0 size= 2583040kB time=00:03:22.20 bitrate=104649.1kbits/s speed=1.22x    frame=12195 fps= 73 q=19.0 size= 2587136kB time=00:03:22.88 bitrate=104461.7kbits/s speed=1.22x    frame=12235 fps= 74 q=19.0 size= 2590720kB time=00:03:23.55 bitrate=104263.4kbits/s speed=1.22x    frame=12275 fps= 74 q=18.0 size= 2594816kB time=00:03:24.22 bitrate=104087.1kbits/s speed=1.22x    frame=12313 fps= 74 q=18.0 size= 2598400kB time=00:03:24.85 bitrate=103908.3kbits/s speed=1.22x    frame=12351 fps= 74 q=19.0 size= 2601984kB time=00:03:25.48 bitrate=103730.6kbits/s speed=1.22x    frame=12386 fps= 74 q=18.0 size= 2605312kB time=00:03:26.07 bitrate=103568.9kbits/s speed=1.22x    frame=12425 fps= 74 q=19.0 size= 2609152kB time=00:03:26.72 bitrate=103395.1kbits/s speed=1.22x    frame=12466 fps= 74 q=18.0 size= 2613760kB time=00:03:27.40 bitrate=103236.1kbits/s speed=1.22x    frame=12503 fps= 74 q=18.0 size= 2618112kB time=00:03:28.02 bitrate=103101.2kbits/s speed=1.22x    frame=12544 fps= 74 q=18.0 size= 2623232kB time=00:03:28.70 bitrate=102964.2kbits/s speed=1.22x    frame=12589 fps= 74 q=18.0 size= 2628608kB time=00:03:29.45 bitrate=102805.5kbits/s speed=1.22x    frame=12627 fps= 74 q=18.0 size= 2632960kB time=00:03:30.09 bitrate=102664.9kbits/s speed=1.22x    frame=12669 fps= 74 q=21.0 size= 2638080kB time=00:03:30.79 bitrate=102522.6kbits/s speed=1.23x    frame=12701 fps= 74 q=21.0 size= 2645504kB time=00:03:31.32 bitrate=102551.4kbits/s speed=1.22x    frame=12730 fps= 74 q=21.0 size= 2653184kB time=00:03:31.81 bitrate=102614.2kbits/s speed=1.22x    frame=12759 fps= 73 q=21.0 size= 2660864kB time=00:03:32.29 bitrate=102676.7kbits/s speed=1.22x    frame=12802 fps= 74 q=21.0 size= 2669824kB time=00:03:33.01 bitrate=102675.5kbits/s speed=1.22x    frame=12833 fps= 73 q=20.0 size= 2675712kB time=00:03:33.53 bitrate=102652.7kbits/s speed=1.22x    frame=12862 fps= 73 q=21.0 size= 2680832kB time=00:03:34.01 bitrate=102616.6kbits/s speed=1.22x    frame=12899 fps= 73 q=20.0 size= 2688256kB time=00:03:34.63 bitrate=102604.8kbits/s speed=1.22x    frame=12936 fps= 73 q=20.0 size= 2694656kB time=00:03:35.24 bitrate=102554.2kbits/s speed=1.22x    frame=12965 fps= 73 q=22.0 size= 2700032kB time=00:03:35.73 bitrate=102528.3kbits/s speed=1.22x    frame=12998 fps= 73 q=20.0 size= 2706688kB time=00:03:36.28 bitrate=102519.4kbits/s speed=1.22x    frame=13034 fps= 73 q=20.0 size= 2713088kB time=00:03:36.88 bitrate=102477.3kbits/s speed=1.22x    frame=13072 fps= 73 q=20.0 size= 2720000kB time=00:03:37.51 bitrate=102438.9kbits/s speed=1.22x    frame=13107 fps= 73 q=19.0 size= 2725888kB time=00:03:38.10 bitrate=102385.8kbits/s speed=1.22x    frame=13146 fps= 73 q=20.0 size= 2732288kB time=00:03:38.75 bitrate=102321.0kbits/s speed=1.22x    frame=13181 fps= 73 q=19.0 size= 2737664kB time=00:03:39.33 bitrate=102249.3kbits/s speed=1.22x    frame=13213 fps= 73 q=19.0 size= 2742528kB time=00:03:39.86 bitrate=102182.3kbits/s speed=1.22x    frame=13245 fps= 73 q=19.0 size= 2748160kB time=00:03:40.40 bitrate=102144.1kbits/s speed=1.22x    frame=13284 fps= 73 q=19.0 size= 2754560kB time=00:03:41.05 bitrate=102080.6kbits/s speed=1.22x    frame=13323 fps= 73 q=17.0 size= 2760960kB time=00:03:41.70 bitrate=102017.5kbits/s speed=1.22x    frame=13347 fps= 73 q=19.0 size= 2764800kB time=00:03:42.10 bitrate=101975.3kbits/s speed=1.22x    frame=13382 fps= 73 q=17.0 size= 2770432kB time=00:03:42.68 bitrate=101915.1kbits/s speed=1.22x    frame=13423 fps= 73 q=17.0 size= 2777088kB time=00:03:43.37 bitrate=101847.1kbits/s speed=1.22x    frame=13462 fps= 73 q=17.0 size= 2783488kB time=00:03:44.02 bitrate=101785.3kbits/s speed=1.22x    frame=13500 fps= 73 q=17.0 size= 2790144kB time=00:03:44.65 bitrate=101740.8kbits/s speed=1.22x    frame=13539 fps= 73 q=17.0 size= 2797056kB time=00:03:45.30 bitrate=101698.3kbits/s speed=1.22x    frame=13580 fps= 73 q=16.0 size= 2804480kB time=00:03:45.99 bitrate=101659.6kbits/s speed=1.22x    frame=13619 fps= 73 q=17.0 size= 2811904kB time=00:03:46.64 bitrate=101636.1kbits/s speed=1.22x    frame=13657 fps= 73 q=18.0 size= 2817792kB time=00:03:47.27 bitrate=101564.8kbits/s speed=1.22x    frame=13697 fps= 73 q=17.0 size= 2825216kB time=00:03:47.94 bitrate=101534.3kbits/s speed=1.22x    frame=13739 fps= 73 q=17.0 size= 2829312kB time=00:03:48.64 bitrate=101369.9kbits/s speed=1.22x    frame=13781 fps= 73 q=16.0 size= 2832896kB time=00:03:49.34 bitrate=101188.2kbits/s speed=1.22x    frame=13821 fps= 73 q=16.0 size= 2836736kB time=00:03:50.01 bitrate=101031.4kbits/s speed=1.22x    frame=13861 fps= 73 q=16.0 size= 2840576kB time=00:03:50.68 bitrate=100875.5kbits/s speed=1.22x    frame=13900 fps= 73 q=16.0 size= 2843904kB time=00:03:51.33 bitrate=100709.6kbits/s speed=1.22x    frame=13937 fps= 73 q=16.0 size= 2847744kB time=00:03:51.94 bitrate=100577.2kbits/s speed=1.22x    frame=13972 fps= 73 q=17.0 size= 2851072kB time=00:03:52.53 bitrate=100441.9kbits/s speed=1.22x    frame=14009 fps= 73 q=16.0 size= 2854400kB time=00:03:53.14 bitrate=100292.9kbits/s speed=1.22x    frame=14050 fps= 73 q=16.0 size= 2858496kB time=00:03:53.83 bitrate=100143.0kbits/s speed=1.22x    frame=14089 fps= 73 q=16.0 size= 2862336kB time=00:03:54.48 bitrate=99999.3kbits/s speed=1.22x    frame=14125 fps= 73 q=18.0 size= 2865408kB time=00:03:55.08 bitrate=99850.8kbits/s speed=1.22x    frame=14167 fps= 73 q=19.0 size= 2874624kB time=00:03:55.78 bitrate=99874.3kbits/s speed=1.22x    frame=14216 fps= 73 q=18.0 size= 2886912kB time=00:03:56.60 bitrate=99954.7kbits/s speed=1.22x    frame=14251 fps= 73 q=18.0 size= 2894336kB time=00:03:57.18 bitrate=99965.0kbits/s speed=1.22x    frame=14289 fps= 73 q=18.0 size= 2903808kB time=00:03:57.82 bitrate=100024.8kbits/s speed=1.22x    frame=14321 fps= 73 q=18.0 size= 2911744kB time=00:03:58.35 bitrate=100073.5kbits/s speed=1.22x    frame=14359 fps= 73 q=18.0 size= 2920192kB time=00:03:58.98 bitrate=100097.6kbits/s speed=1.22x    frame=14397 fps= 73 q=18.0 size= 2928640kB time=00:03:59.62 bitrate=100121.6kbits/s speed=1.22x    frame=14435 fps= 73 q=18.0 size= 2938624kB time=00:04:00.25 bitrate=100197.9kbits/s speed=1.22x    frame=14479 fps= 73 q=18.0 size= 2948096kB time=00:04:00.99 bitrate=100214.6kbits/s speed=1.22x    frame=14517 fps= 73 q=18.0 size= 2956032kB time=00:04:01.62 bitrate=100220.8kbits/s speed=1.22x    frame=14553 fps= 73 q=19.0 size= 2963456kB time=00:04:02.22 bitrate=100223.3kbits/s speed=1.22x    frame=14588 fps= 73 q=19.0 size= 2972416kB time=00:04:02.80 bitrate=100284.6kbits/s speed=1.22x    frame=14624 fps= 73 q=19.0 size= 2981120kB time=00:04:03.40 bitrate=100330.1kbits/s speed=1.22x    frame=14660 fps= 73 q=19.0 size= 2990336kB time=00:04:04.01 bitrate=100392.5kbits/s speed=1.22x    frame=14701 fps= 73 q=17.0 size= 3001600kB time=00:04:04.69 bitrate=100489.0kbits/s speed=1.22x    frame=14744 fps= 73 q=16.0 size= 3010304kB time=00:04:05.41 bitrate=100485.8kbits/s speed=1.22x    frame=14775 fps= 73 q=17.0 size= 3014400kB time=00:04:05.92 bitrate=100410.9kbits/s speed=1.22x    frame=14814 fps= 73 q=16.0 size= 3020288kB time=00:04:06.57 bitrate=100341.6kbits/s speed=1.22x    frame=14853 fps= 73 q=16.0 size= 3025408kB time=00:04:07.23 bitrate=100247.2kbits/s speed=1.22x    frame=14892 fps= 73 q=16.0 size= 3030784kB time=00:04:07.88 bitrate=100161.7kbits/s speed=1.22x    frame=14933 fps= 73 q=17.0 size= 3037696kB time=00:04:08.56 bitrate=100113.9kbits/s speed=1.22x    frame=14976 fps= 74 q=16.0 size= 3044608kB time=00:04:09.28 bitrate=100052.9kbits/s speed=1.22x    frame=15009 fps= 73 q=17.0 size= 3050240kB time=00:04:09.83 bitrate=100017.1kbits/s speed=1.22x    frame=15050 fps= 74 q=22.0 size= 3057664kB time=00:04:10.51 bitrate=99986.8kbits/s speed=1.22x    frame=15079 fps= 73 q=21.0 size= 3065088kB time=00:04:11.00 bitrate=100036.3kbits/s speed=1.22x    frame=15116 fps= 73 q=22.0 size= 3082240kB time=00:04:11.61 bitrate=100349.4kbits/s speed=1.22x    frame=15141 fps= 73 q=22.0 size= 3093248kB time=00:04:12.03 bitrate=100541.1kbits/s speed=1.22x    frame=15170 fps= 73 q=22.0 size= 3106560kB time=00:04:12.51 bitrate=100780.3kbits/s speed=1.22x    frame=15213 fps= 73 q=22.0 size= 3124992kB time=00:04:13.23 bitrate=101091.1kbits/s speed=1.22x    frame=15244 fps= 73 q=24.0 size= 3138048kB time=00:04:13.75 bitrate=101306.5kbits/s speed=1.22x    frame=15267 fps= 73 q=22.0 size= 3147520kB time=00:04:14.13 bitrate=101458.9kbits/s speed=1.22x    frame=15302 fps= 73 q=22.0 size= 3161600kB time=00:04:14.72 bitrate=101679.1kbits/s speed=1.22x    frame=15335 fps= 73 q=21.0 size= 3172864kB time=00:04:15.27 bitrate=101821.3kbits/s speed=1.22x    frame=15373 fps= 73 q=22.0 size= 3183104kB time=00:04:15.90 bitrate=101896.9kbits/s speed=1.22x    frame=15409 fps= 73 q=22.0 size= 3193344kB time=00:04:16.50 bitrate=101985.3kbits/s speed=1.22x    frame=15448 fps= 73 q=18.0 size= 3206400kB time=00:04:17.15 bitrate=102143.2kbits/s speed=1.22x    frame=15489 fps= 73 q=18.0 size= 3212800kB time=00:04:17.84 bitrate=102075.6kbits/s speed=1.22x    frame=15523 fps= 73 q=18.0 size= 3216128kB time=00:04:18.40 bitrate=101957.0kbits/s speed=1.22x    frame=15563 fps= 73 q=18.0 size= 3219456kB time=00:04:19.07 bitrate=101799.6kbits/s speed=1.22x    frame=15605 fps= 73 q=19.0 size= 3223552kB time=00:04:19.77 bitrate=101654.2kbits/s speed=1.22x    frame=15637 fps= 73 q=18.0 size= 3226880kB time=00:04:20.31 bitrate=101550.4kbits/s speed=1.22x    frame=15678 fps= 73 q=17.0 size= 3230976kB time=00:04:20.99 bitrate=101412.8kbits/s speed=1.22x    frame=15711 fps= 73 q=18.0 size= 3234048kB time=00:04:21.54 bitrate=101295.6kbits/s speed=1.22x    frame=15751 fps= 73 q=14.0 size= 3238400kB time=00:04:22.21 bitrate=101173.8kbits/s speed=1.22x    frame=15797 fps= 73 q=15.0 size= 3246336kB time=00:04:22.97 bitrate=101125.7kbits/s speed=1.22x    frame=15835 fps= 73 q=15.0 size= 3251200kB time=00:04:23.61 bitrate=101033.7kbits/s speed=1.22x    frame=15871 fps= 73 q=17.0 size= 3255808kB time=00:04:24.21 bitrate=100946.9kbits/s speed=1.22x    frame=15914 fps= 73 q=16.0 size= 3263744kB time=00:04:24.93 bitrate=100918.9kbits/s speed=1.22x    frame=15955 fps= 73 q=17.0 size= 3269888kB time=00:04:25.61 bitrate=100848.5kbits/s speed=1.22x    frame=15988 fps= 73 q=15.0 size= 3274752kB time=00:04:26.16 bitrate=100789.6kbits/s speed=1.22x    frame=16023 fps= 73 q=18.0 size= 3281408kB time=00:04:26.74 bitrate=100773.4kbits/s speed=1.22x    frame=16067 fps= 73 q=18.0 size= 3288832kB time=00:04:27.48 bitrate=100724.2kbits/s speed=1.22x    frame=16098 fps= 73 q=17.0 size= 3293696kB time=00:04:28.00 bitrate=100678.5kbits/s speed=1.22x    frame=16139 fps= 73 q=16.0 size= 3300352kB time=00:04:28.68 bitrate=100625.2kbits/s speed=1.22x    frame=16177 fps= 73 q=15.0 size= 3306240kB time=00:04:29.31 bitrate=100567.4kbits/s speed=1.22x    frame=16211 fps= 73 q=15.0 size= 3311872kB time=00:04:29.88 bitrate=100527.0kbits/s speed=1.22x    frame=16252 fps= 73 q=16.0 size= 3318272kB time=00:04:30.57 bitrate=100466.6kbits/s speed=1.22x    frame=16295 fps= 73 q=15.0 size= 3324672kB time=00:04:31.28 bitrate=100394.2kbits/s speed=1.22x    frame=16329 fps= 73 q=17.0 size= 3330048kB time=00:04:31.85 bitrate=100346.7kbits/s speed=1.22x    frame=16363 fps= 73 q=15.0 size= 3336192kB time=00:04:32.42 bitrate=100322.5kbits/s speed=1.22x    frame=16401 fps= 73 q=18.0 size= 3341824kB time=00:04:33.05 bitrate=100258.6kbits/s speed=1.22x    frame=16449 fps= 73 q=16.0 size= 3349248kB time=00:04:33.85 bitrate=100187.5kbits/s speed=1.22x    frame=16482 fps= 73 q=16.0 size= 3355392kB time=00:04:34.40 bitrate=100169.9kbits/s speed=1.22x    frame=16524 fps= 73 q=14.0 size= 3361792kB time=00:04:35.10 bitrate=100105.3kbits/s speed=1.22x    frame=16564 fps= 73 q=19.0 size= 3367168kB time=00:04:35.77 bitrate=100022.8kbits/s speed=1.22x    frame=16602 fps= 73 q=15.0 size= 3373824kB time=00:04:36.40 bitrate=99990.7kbits/s speed=1.22x    frame=16643 fps= 73 q=15.0 size= 3379456kB time=00:04:37.09 bitrate=99910.3kbits/s speed=1.22x    frame=16684 fps= 73 q=18.0 size= 3384320kB time=00:04:37.77 bitrate=99807.7kbits/s speed=1.22x    frame=16725 fps= 73 q=15.0 size= 3390208kB time=00:04:38.46 bitrate=99735.8kbits/s speed=1.22x    frame=16769 fps= 74 q=13.0 size= 3394816kB time=00:04:39.19 bitrate=99608.8kbits/s speed=1.22x    frame=16813 fps= 74 q=15.0 size= 3399424kB time=00:04:39.92 bitrate=99482.4kbits/s speed=1.22x    frame=16854 fps= 74 q=21.0 size= 3404032kB time=00:04:40.61 bitrate=99374.4kbits/s speed=1.22x    frame=16887 fps= 74 q=21.0 size= 3412736kB time=00:04:41.16 bitrate=99433.5kbits/s speed=1.22x    frame=16922 fps= 74 q=20.0 size= 3428352kB time=00:04:41.74 bitrate=99681.4kbits/s speed=1.22x    frame=16945 fps= 73 q=21.0 size= 3438080kB time=00:04:42.13 bitrate=99828.3kbits/s speed=1.22x    frame=16976 fps= 73 q=21.0 size= 3451136kB time=00:04:42.64 bitrate=100024.1kbits/s speed=1.22x    frame=17021 fps= 73 q=22.0 size= 3468544kB time=00:04:43.39 bitrate=100262.3kbits/s speed=1.22x    frame=17051 fps= 73 q=22.0 size= 3481344kB time=00:04:43.90 bitrate=100454.9kbits/s speed=1.22x    frame=17078 fps= 73 q=22.0 size= 3493120kB time=00:04:44.35 bitrate=100635.0kbits/s speed=1.22x    frame=17112 fps= 73 q=22.0 size= 3505152kB time=00:04:44.91 bitrate=100780.6kbits/s speed=1.22x    frame=17154 fps= 73 q=22.0 size= 3520768kB time=00:04:45.61 bitrate=100981.2kbits/s speed=1.22x    frame=17181 fps= 73 q=23.0 size= 3531008kB time=00:04:46.06 bitrate=101115.5kbits/s speed=1.22x    frame=17215 fps= 73 q=23.0 size= 3545600kB time=00:04:46.63 bitrate=101332.4kbits/s speed=1.22x    frame=17252 fps= 73 q=23.0 size= 3560704kB time=00:04:47.25 bitrate=101545.4kbits/s speed=1.22x    frame=17285 fps= 73 q=25.0 size= 3574272kB time=00:04:47.80 bitrate=101737.3kbits/s speed=1.22x    frame=17305 fps= 73 q=23.0 size= 3582208kB time=00:04:48.13 bitrate=101845.2kbits/s speed=1.22x    frame=17341 fps= 73 q=24.0 size= 3596544kB time=00:04:48.73 bitrate=102040.0kbits/s speed=1.22x    frame=17382 fps= 73 q=23.0 size= 3612160kB time=00:04:49.42 bitrate=102240.9kbits/s speed=1.22x    frame=17412 fps= 73 q=23.0 size= 3623168kB time=00:04:49.92 bitrate=102375.4kbits/s speed=1.22x    frame=17439 fps= 73 q=20.0 size= 3633920kB time=00:04:50.37 bitrate=102520.0kbits/s speed=1.22x    frame=17481 fps= 73 q=20.0 size= 3644416kB time=00:04:51.07 bitrate=102568.6kbits/s speed=1.22x    frame=17520 fps= 73 q=22.0 size= 3651840kB time=00:04:51.72 bitrate=102548.3kbits/s speed=1.22x    frame=17557 fps= 73 q=22.0 size= 3660544kB time=00:04:52.34 bitrate=102575.6kbits/s speed=1.22x    frame=17597 fps= 73 q=21.0 size= 3670272kB time=00:04:53.00 bitrate=102614.0kbits/s speed=1.22x    frame=17636 fps= 73 q=21.0 size= 3678976kB time=00:04:53.66 bitrate=102629.5kbits/s speed=1.22x    frame=17675 fps= 73 q=23.0 size= 3688192kB time=00:04:54.31 bitrate=102659.1kbits/s speed=1.22x    frame=17711 fps= 73 q=21.0 size= 3695872kB time=00:04:54.91 bitrate=102663.3kbits/s speed=1.22x    frame=17749 fps= 73 q=21.0 size= 3703808kB time=00:04:55.54 bitrate=102663.1kbits/s speed=1.22x    frame=17780 fps= 73 q=22.0 size= 3711744kB time=00:04:56.06 bitrate=102703.3kbits/s speed=1.22x    frame=17812 fps= 73 q=21.0 size= 3717632kB time=00:04:56.59 bitrate=102681.1kbits/s speed=1.22x    frame=17851 fps= 73 q=20.0 size= 3724544kB time=00:04:57.24 bitrate=102646.8kbits/s speed=1.22x    frame=17889 fps= 73 q=20.0 size= 3730176kB time=00:04:57.88 bitrate=102583.3kbits/s speed=1.22x    frame=17920 fps= 73 q=20.0 size= 3734528kB time=00:04:58.39 bitrate=102524.9kbits/s speed=1.22x    frame=17959 fps= 73 q=20.0 size= 3740416kB time=00:04:59.04 bitrate=102463.2kbits/s speed=1.22x    frame=18001 fps= 73 q=21.0 size= 3745536kB time=00:04:59.74 bitrate=102363.6kbits/s speed=1.22x    frame=18033 fps= 73 q=22.0 size= 3750400kB time=00:05:00.28 bitrate=102314.3kbits/s speed=1.22x    frame=18070 fps= 73 q=22.0 size= 3760896kB time=00:05:00.90 bitrate=102390.1kbits/s speed=1.22x    frame=18099 fps= 73 q=23.0 size= 3768320kB time=00:05:01.38 bitrate=102427.6kbits/s speed=1.22x    frame=18134 fps= 73 q=22.0 size= 3778304kB time=00:05:01.96 bitrate=102500.4kbits/s speed=1.22x    frame=18163 fps= 73 q=22.0 size= 3786240kB time=00:05:02.45 bitrate=102551.3kbits/s speed=1.22x    frame=18201 fps= 73 q=21.0 size= 3794432kB time=00:05:03.08 bitrate=102558.3kbits/s speed=1.22x    frame=18246 fps= 73 q=22.0 size= 3800832kB time=00:05:03.83 bitrate=102477.4kbits/s speed=1.22x    frame=18273 fps= 73 q=20.0 size= 3805184kB time=00:05:04.28 bitrate=102442.9kbits/s speed=1.22x    frame=18313 fps= 73 q=24.0 size= 3812352kB time=00:05:04.95 bitrate=102411.2kbits/s speed=1.22x    frame=18346 fps= 73 q=24.0 size= 3822336kB time=00:05:05.50 bitrate=102494.4kbits/s speed=1.22x    frame=18378 fps= 73 q=24.0 size= 3834880kB time=00:05:06.03 bitrate=102651.4kbits/s speed=1.22x    frame=18408 fps= 73 q=24.0 size= 3847168kB time=00:05:06.53 bitrate=102812.2kbits/s speed=1.22x    frame=18443 fps= 73 q=24.0 size= 3860224kB time=00:05:07.12 bitrate=102964.9kbits/s speed=1.22x    frame=18482 fps= 73 q=24.0 size= 3874816kB time=00:05:07.77 bitrate=103135.7kbits/s speed=1.22x    frame=18507 fps= 73 q=24.0 size= 3883776kB time=00:05:08.19 bitrate=103234.3kbits/s speed=1.21x    frame=18540 fps= 73 q=24.0 size= 3896320kB time=00:05:08.74 bitrate=103383.0kbits/s speed=1.21x    frame=18574 fps= 73 q=24.0 size= 3907840kB time=00:05:09.30 bitrate=103498.5kbits/s speed=1.21x    frame=18610 fps= 73 q=24.0 size= 3920128kB time=00:05:09.90 bitrate=103622.8kbits/s speed=1.21x    frame=18641 fps= 73 q=24.0 size= 3931136kB time=00:05:10.42 bitrate=103740.6kbits/s speed=1.21x    frame=18681 fps= 73 q=24.0 size= 3944192kB time=00:05:11.09 bitrate=103861.9kbits/s speed=1.21x    frame=18719 fps= 73 q=25.0 size= 3956736kB time=00:05:11.72 bitrate=103980.3kbits/s speed=1.21x    frame=18746 fps= 73 q=25.0 size= 3965696kB time=00:05:12.17 bitrate=104065.4kbits/s speed=1.21x    frame=18781 fps= 73 q=25.0 size= 3977472kB time=00:05:12.76 bitrate=104179.5kbits/s speed=1.21x    frame=18808 fps= 73 q=-1.0 Lsize= 3996542kB time=00:05:13.76 bitrate=104345.1kbits/s speed=1.21x    
video:3996431kB audio:0kB subtitle:0kB other streams:0kB global headers:0kB muxing overhead: 0.002787%
[libx264 @ 0x5595595852c0] frame I:157   Avg QP:14.90  size:1147922
[libx264 @ 0x5595595852c0] frame P:18651 Avg QP:17.90  size:209754
[libx264 @ 0x5595595852c0] mb I  I16..4: 100.0%  0.0%  0.0%
[libx264 @ 0x5595595852c0] mb P  I16..4:  5.3%  0.0%  0.0%  P16..4: 58.1%  0.0%  0.0%  0.0%  0.0%    skip:36.7%
[libx264 @ 0x5595595852c0] final ratefactor: 17.23
[libx264 @ 0x5595595852c0] coded y,uvDC,uvAC intra: 26.7% 52.5% 25.0% inter: 27.3% 34.7% 8.3%
[libx264 @ 0x5595595852c0] i16 v,h,dc,p: 35% 28% 13% 24%
[libx264 @ 0x5595595852c0] i8c dc,h,v,p: 40% 25% 19% 16%
[libx264 @ 0x5595595852c0] kb/s:104336.61
